<svg id="SvgjsSvg1090" width="256" height="256" xmlns="http://www.w3.org/2000/svg" version="1.1" xmlns:xlink="http://www.w3.org/1999/xlink" xmlns:svgjs="http://svgjs.com/svgjs"><defs id="SvgjsDefs1091"></defs><g id="SvgjsG1092"><svg xmlns="http://www.w3.org/2000/svg" fill-rule="evenodd" clip-rule="evenodd" image-rendering="optimizeQuality" shape-rendering="geometricPrecision" text-rendering="geometricPrecision" viewBox="0 0 1707 1707" width="256" height="256"><defs><linearGradient id="a" x1="138.362" x2="1568.3" y1="134.709" y2="1571.95" gradientUnits="userSpaceOnUse"><stop offset="0" stop-color="#401379" class="stopColor401379 svgShape"></stop><stop offset=".502" stop-color="#8a0b92" class="stopColor8a0b92 svgShape"></stop><stop offset="1" stop-color="#ec067f" class="stopColorec067f svgShape"></stop></linearGradient></defs><path fill="url(#a)" d="M853 1707c-470,0 -853,-383 -853,-854 0,-470 383,-853 853,-853 471,0 854,383 854,853 0,471 -383,854 -854,854zm207 -428l-88 0c-11,0 -20,-9 -20,-20l0 -179 -197 0 0 179c0,11 -9,20 -20,20l-88 0c-11,0 -20,-9 -20,-20l0 -179 -180 0c-11,0 -20,-9 -20,-20l0 -88c0,-11 9,-20 20,-20l180 0 0 -197 -180 0c-11,0 -20,-9 -20,-20l0 -88c0,-11 9,-20 20,-20l180 0 0 -180c0,-11 9,-20 20,-20l88 0c11,0 20,9 20,20l0 180 197 0 0 -180c0,-11 9,-20 20,-20l88 0c11,0 20,9 20,20l0 180 179 0c11,0 20,9 20,20l0 88c0,11 -9,20 -20,20l-179 0 0 197 179 0c11,0 20,9 20,20l0 88c0,11 -9,20 -20,20l-179 0 0 179c0,11 -9,20 -20,20zm-68 -40l48 0 0 -179c0,-11 9,-20 20,-20l179 0 0 -48 -179 0c-11,0 -20,-9 -20,-20l0 -237c0,-12 9,-20 20,-20l179 0 0 -48 -179 0c-11,0 -20,-9 -20,-20l0 -180 -48 0 0 180c0,11 -9,20 -20,20l-237 0c-12,0 -20,-9 -20,-20l0 -180 -48 0 0 180c0,11 -9,20 -20,20l-180 0 0 48 180 0c11,0 20,8 20,20l0 237c0,11 -9,20 -20,20l-180 0 0 48 180 0c11,0 20,9 20,20l0 179 48 0 0 -179c0,-11 8,-20 20,-20l237 0c11,0 20,9 20,20l0 179zm-20 -247l-237 0c-12,0 -20,-9 -20,-20l0 -237c0,-12 8,-20 20,-20l237 0c11,0 20,8 20,20l0 237c0,11 -9,20 -20,20zm-217 -40l197 0 0 -197 -197 0 0 197zm98 650c-413,0 -749,-336 -749,-749 0,-413 336,-749 749,-749 413,0 749,336 749,749 0,413 -336,749 -749,749zm0 -1458c-391,0 -709,318 -709,709 0,391 318,709 709,709 391,0 709,-318 709,-709 0,-391 -318,-709 -709,-709zm0 -104c-448,0 -813,365 -813,813 0,449 365,814 813,814 449,0 814,-365 814,-814 0,-448 -365,-813 -814,-813z"></path></svg></g></svg>